<svg width="151" height="151" viewBox="0 0 151 151" fill="none" xmlns="http://www.w3.org/2000/svg">
<path d="M77.5061 0C76.5632 0 75.6203 0.754317 75.0546 1.69721L57.3281 35.8301C56.951 36.773 56.0081 37.5273 54.8766 37.5273H28.2869C12.6348 37.5273 0 50.1621 0 65.8142V148.978C0 149.921 0.754317 150.675 1.69721 150.675H148.978C149.921 150.675 150.675 149.921 150.675 148.978V39.4131C150.675 38.2816 149.921 37.7159 148.978 37.7159H133.703C132.76 37.7159 131.817 36.9616 131.251 36.0187L113.525 1.88579C112.959 0.942897 112.205 0.188579 111.073 0.188579H76.9404L77.5061 0ZM28.6641 56.5738C33.9443 56.5738 38.093 60.7225 38.093 66.0028C38.093 71.283 33.9443 75.4317 28.6641 75.4317C23.3838 75.4317 19.2351 71.283 19.2351 66.0028C19.2351 60.7225 23.3838 56.5738 28.6641 56.5738ZM94.6668 56.5738C115.411 56.5738 132.383 73.5459 132.383 94.2897C132.383 115.033 115.411 132.006 94.6668 132.006C73.9231 132.006 56.951 115.033 56.951 94.2897C56.951 73.5459 73.9231 56.5738 94.6668 56.5738ZM94.6668 75.4317C84.295 75.4317 75.8089 83.9178 75.8089 94.2897C75.8089 104.662 84.295 113.148 94.6668 113.148C105.039 113.148 113.525 104.662 113.525 94.2897C113.525 83.9178 105.039 75.4317 94.6668 75.4317Z" fill="#585C66"/>
</svg>
