<svg width="113" height="71" viewBox="0 0 113 71" fill="none" xmlns="http://www.w3.org/2000/svg">
<path d="M45.0156 33.4688C44.6738 31.6426 43.1602 30.627 41.3633 30.6367C38.9219 30.627 37.1152 32.502 37.1055 35.9297C37.1152 39.377 38.9316 41.2324 41.3633 41.2227C43.1406 41.2324 44.6445 40.2363 45.0156 38.4297L47.1836 38.4492C46.7344 41.2422 44.459 43.1953 41.3438 43.1953C37.6621 43.1953 34.9766 40.4512 34.9766 35.9297C34.9766 31.4082 37.6816 28.6641 41.3438 28.6641C44.332 28.6641 46.7051 30.4316 47.1836 33.4688H45.0156ZM51.4219 28.8594V43H49.332V28.8594H51.4219ZM53.9609 43V32.3945H56.0508V43H53.9609ZM53.6875 29.5234C53.6973 28.8398 54.293 28.293 55.0156 28.293C55.7285 28.293 56.3242 28.8398 56.3242 29.5234C56.3242 30.207 55.7285 30.7637 55.0156 30.7539C54.293 30.7637 53.6973 30.207 53.6875 29.5234ZM63.082 43.2148C59.9863 43.2148 58.1113 40.9395 58.1211 37.7461C58.1113 34.5137 60.0547 32.2578 63.043 32.2578C65.4648 32.2578 67.2129 33.6836 67.4375 35.832H65.4062C65.1914 34.8359 64.4004 34.0059 63.082 33.9961C61.3633 34.0059 60.2109 35.4316 60.2109 37.6875C60.2109 40.0117 61.334 41.4473 63.082 41.4375C64.2637 41.4473 65.1426 40.7832 65.4062 39.6406H67.4375C67.2129 41.7012 65.582 43.2148 63.082 43.2148ZM69.4102 43V28.8594H71.5V36.8672H71.6758L75.875 32.3945H78.375L74.0879 36.9453L78.668 43H76.1094L72.5059 38.2344L71.5 39.2305V43H69.4102Z" fill="#2F3238"/>
<rect x="0.5" y="0.5" width="112" height="70" rx="35" stroke="black"/>
</svg>
