<svg width="140" height="70" viewBox="0 0 140 70" fill="none" xmlns="http://www.w3.org/2000/svg">
<path d="M41.4648 30.9062C41.4648 33.8066 42.666 36.7363 45.0391 38.0156L43.9453 39.4805C42.2949 38.5527 41.1719 36.8828 40.5566 34.8906C39.9121 37.0684 38.7109 38.9238 37.0117 39.9297L35.8398 38.582C38.3398 37.127 39.668 34.002 39.668 31.0234V27.7617H41.4648V30.9062ZM45.4688 42.8008V26.4922H47.2461V33.1328H49.3555V26.1602H51.1328V43.6602H49.3555V34.6367H47.2461V42.8008H45.4688ZM69.375 40.0078V41.5703H53.3594V40.0078H60.4102V36.9414H55.3125V31.375H65.5859V28.9141H55.2734V27.3906H67.4219V32.8594H57.1484V35.418H67.832V36.9414H62.2461V40.0078H69.375ZM84.8047 27.8398V29.5586C84.7949 31.7168 84.7949 34.1387 84.1406 37.7227L82.2656 37.5273C82.9395 34.1387 82.9395 31.6582 82.9492 29.5586V29.3438H72.3242V27.8398H84.8047ZM70.6445 41.2969V39.7539H76.7188V33.582H78.5547V39.7539H86.6016V41.2969H70.6445ZM94.4336 29.7148C94.4238 31.7949 96.1523 33.7285 98.8672 34.4805L97.9883 35.9258C95.9277 35.3398 94.3652 34.0703 93.5547 32.4297C92.7637 34.2266 91.2012 35.6328 89.1016 36.2969L88.2227 34.8711C90.9082 34.0215 92.5879 31.9414 92.5781 29.7148V29.5977H88.6914V28.1133H92.5781V26.082H94.4531V28.1133H98.3008V29.5977H94.4336V29.7148ZM90.9375 43.4453V37.332H102.441V43.4453H90.9375ZM92.7734 41.9414H100.625V38.8359H92.7734V41.9414ZM100.586 36.5117V26.1797H102.441V36.5117H100.586Z" fill="#2F3238"/>
<rect x="0.5" y="0.5" width="139" height="69" rx="34.5" stroke="black"/>
</svg>
