<svg width="231" height="70" viewBox="0 0 231 70" fill="none" xmlns="http://www.w3.org/2000/svg">
<path d="M36.457 42V27.8594H41.4961C44.7871 27.8594 46.3984 29.832 46.3984 32.4492C46.3984 35.0566 44.7773 37.0391 41.4961 37.0391H38.6055V42H36.457ZM38.6055 35.2031H41.2812C43.3613 35.2129 44.2305 34.041 44.2305 32.4492C44.2305 30.8477 43.3613 29.7051 41.2812 29.6953H38.6055V35.2031ZM50.5781 27.8594V42H48.4883V27.8594H50.5781ZM57.6875 42.2148C54.5625 42.2148 52.6387 40.0566 52.6484 36.7656C52.6387 33.5039 54.5918 31.2578 57.5508 31.2578C59.9629 31.2578 62.2578 32.752 62.2578 36.5898V37.332H54.7188C54.7773 39.3535 55.9688 40.4961 57.707 40.4961C58.8887 40.4961 59.6602 39.9883 60.0117 39.3438H62.1211C61.6523 41.0625 60.0215 42.2148 57.6875 42.2148ZM54.7285 35.7695H60.207C60.207 34.1582 59.1621 32.9668 57.5703 32.9766C55.9004 32.9668 54.8164 34.2754 54.7285 35.7695ZM63.8398 39.0117C63.8301 36.5898 65.8906 35.9648 67.8047 35.8281C68.5078 35.7891 70.0996 35.7012 70.5879 35.6816L70.5781 34.832C70.5879 33.6309 69.8457 32.9375 68.4297 32.9375C67.1992 32.9375 66.457 33.5039 66.2422 34.2852H64.1719C64.3574 32.5273 65.998 31.2578 68.5078 31.2578C70.1973 31.2578 72.6582 31.873 72.668 34.9492V42H70.6367V40.5547H70.5586C70.1484 41.3457 69.1719 42.2344 67.4141 42.2344C65.4023 42.2344 63.8301 41.082 63.8398 39.0117ZM65.8711 39.0312C65.8711 40.0469 66.7109 40.5645 67.8828 40.5742C69.582 40.5645 70.5977 39.4316 70.5977 38.1719L70.5879 37.2051C70.1094 37.2344 68.5957 37.3418 68.0977 37.3711C66.7305 37.4688 65.8711 37.9863 65.8711 39.0312ZM81.1445 34.2852C80.9492 33.4453 80.2852 32.8984 79.1328 32.8984C77.9414 32.8984 77.0918 33.5137 77.1016 34.3242C77.0918 34.9492 77.5898 35.3984 78.7617 35.6719L80.4414 36.0625C82.3945 36.502 83.3418 37.4297 83.3516 38.9336C83.3418 40.8477 81.7207 42.2148 79.0156 42.2148C76.4668 42.2148 74.9629 41.082 74.6992 39.1094H76.8281C77.0137 40.0664 77.7363 40.5449 78.9961 40.5352C80.3438 40.5449 81.2129 39.9785 81.2227 39.0898C81.2129 38.4062 80.7051 37.9668 79.582 37.7031L77.9219 37.3516C76.0078 36.9316 75.0117 35.9062 75.0117 34.4414C75.0117 32.5566 76.6523 31.2578 79.1133 31.2578C81.4766 31.2578 82.9512 32.459 83.1562 34.2852H81.1445ZM89.9531 42.2148C86.8281 42.2148 84.9043 40.0566 84.9141 36.7656C84.9043 33.5039 86.8574 31.2578 89.8164 31.2578C92.2285 31.2578 94.5234 32.752 94.5234 36.5898V37.332H86.9844C87.043 39.3535 88.2344 40.4961 89.9727 40.4961C91.1543 40.4961 91.9258 39.9883 92.2773 39.3438H94.3867C93.918 41.0625 92.2871 42.2148 89.9531 42.2148ZM86.9941 35.7695H92.4727C92.4727 34.1582 91.4277 32.9668 89.8359 32.9766C88.166 32.9668 87.082 34.2754 86.9941 35.7695ZM109.348 31.5898C109.211 30.2715 108.059 29.5195 106.438 29.5195C104.709 29.5195 103.615 30.4082 103.605 31.6094C103.605 32.9473 105.061 33.4746 106.184 33.7383L107.551 34.1094C109.357 34.5488 111.623 35.5352 111.633 38.0938C111.623 40.4863 109.719 42.2344 106.379 42.2344C103.215 42.2344 101.223 40.6523 101.086 38.0742H103.234C103.361 39.6172 104.729 40.3496 106.379 40.3594C108.186 40.3496 109.494 39.4414 109.504 38.0547C109.494 36.8242 108.322 36.3262 106.828 35.9258L105.148 35.4766C102.873 34.8516 101.467 33.6992 101.457 31.7266C101.467 29.2852 103.635 27.6641 106.496 27.6641C109.367 27.6641 111.369 29.3047 111.438 31.5898H109.348ZM118.254 42.2148C115.158 42.2148 113.283 39.9395 113.293 36.7461C113.283 33.5137 115.227 31.2578 118.215 31.2578C120.637 31.2578 122.385 32.6836 122.609 34.832H120.578C120.363 33.8359 119.572 33.0059 118.254 32.9961C116.535 33.0059 115.383 34.4316 115.383 36.6875C115.383 39.0117 116.506 40.4473 118.254 40.4375C119.436 40.4473 120.314 39.7832 120.578 38.6406H122.609C122.385 40.7012 120.754 42.2148 118.254 42.2148ZM124.582 42V31.3945H126.594V33.0742H126.711C127.102 31.9414 128.166 31.2285 129.406 31.2383C129.66 31.2285 130.07 31.2578 130.285 31.2773V33.2695C130.109 33.2305 129.621 33.1426 129.191 33.1523C127.746 33.1426 126.672 34.1484 126.672 35.5352V42H124.582ZM135.988 42.2148C132.98 42.2148 131.018 40.0273 131.027 36.7461C131.018 33.4453 132.98 31.2578 135.988 31.2578C138.977 31.2578 140.93 33.4453 140.93 36.7461C140.93 40.0273 138.977 42.2148 135.988 42.2148ZM133.117 36.7461C133.117 38.7676 134.045 40.4766 135.988 40.4766C137.902 40.4766 138.82 38.7676 138.82 36.7461C138.82 34.7148 137.902 32.9863 135.988 32.9766C134.045 32.9863 133.117 34.7148 133.117 36.7461ZM145.07 27.8594V42H142.98V27.8594H145.07ZM149.699 27.8594V42H147.609V27.8594H149.699ZM157.551 36.6094C157.57 32.9277 158.615 29.8711 160.441 27.2539H162.355C161.008 29.1875 159.719 33.123 159.719 36.6094C159.719 40.1055 161.008 44.041 162.355 45.9844H160.441C158.615 43.3574 157.57 40.3008 157.551 36.6094ZM171.086 42.0977L164.797 35.8086L171.086 29.5391L172.316 30.7695L168.176 34.9102H183.645L179.504 30.7695L180.754 29.5391L187.043 35.8086L180.754 42.0977L179.504 40.8477L183.645 36.707H168.176L172.316 40.8477L171.086 42.0977ZM194.289 36.6094C194.27 40.3008 193.225 43.3574 191.398 45.9844H189.484C190.832 44.041 192.121 40.1055 192.121 36.6094C192.121 33.123 190.832 29.1875 189.484 27.2539H191.398C193.225 29.8711 194.27 32.9277 194.289 36.6094Z" fill="#2F3238"/>
<rect x="0.5" y="0.5" width="230" height="69" rx="34.5" stroke="black"/>
</svg>
