<svg width="273" height="18" viewBox="0 0 273 18" fill="none" xmlns="http://www.w3.org/2000/svg">
<path d="M13.4512 0.160156V4.59375H15.9707V6.11719H13.4512V10.4922H11.5762V0.160156H13.4512ZM0.423828 9.22266V1.44922H8.23633V2.95312H2.25977V7.71875C5.70703 7.69922 7.65039 7.60156 9.85742 7.15234L10.0332 8.65625C7.68945 9.13477 5.59961 9.22266 1.81055 9.22266H0.423828ZM1.9082 14.2227C1.9082 12.084 4.17383 10.834 7.78711 10.8242C11.3613 10.834 13.5879 12.084 13.5879 14.2227C13.5879 16.3809 11.3613 17.6309 7.78711 17.6211C4.17383 17.6309 1.9082 16.3809 1.9082 14.2227ZM3.74414 14.2227C3.73438 15.4336 5.25781 16.1465 7.78711 16.1367C10.2676 16.1465 11.8008 15.4336 11.8105 14.2227C11.8008 13.0117 10.2676 12.3184 7.78711 12.3281C5.25781 12.3184 3.73438 13.0117 3.74414 14.2227ZM31.4785 0.179688V12.9922H29.623V0.179688H31.4785ZM17.0645 9.04688C19.8086 8.03125 21.4297 5.51172 21.4395 2.875V1.13672H23.334V2.875C23.3242 5.43359 24.9453 7.77734 27.6504 8.71484L26.6934 10.1992C24.6719 9.44727 23.1777 7.96289 22.3965 6.06836C21.625 8.09961 20.1113 9.7207 18.0605 10.5117L17.0645 9.04688ZM20.0332 17.2891V11.7812H21.9082V15.7852H32.0059V17.2891H20.0332ZM39.9551 1.41016C42.7188 1.40039 44.7109 3.10938 44.7207 5.57031C44.7109 8.03125 42.7188 9.74023 39.9551 9.75C37.2012 9.74023 35.1797 8.03125 35.1895 5.57031C35.1797 3.10938 37.2012 1.40039 39.9551 1.41016ZM34.3496 12.3867C37.5332 12.3867 41.9473 12.3574 45.7754 11.8008L45.9121 13.1484C41.957 13.9102 37.709 13.9297 34.584 13.9297L34.3496 12.3867ZM37.0254 5.57031C37.0059 7.12305 38.2559 8.12891 39.9551 8.12891C41.6543 8.12891 42.9043 7.12305 42.9043 5.57031C42.9043 4.03711 41.6543 3.01172 39.9551 3.01172C38.2559 3.01172 37.0059 4.03711 37.0254 5.57031ZM46.8691 17.6992V0.160156H48.7246V17.6992H46.8691ZM71.0098 0.179688V12.9922H69.1543V6.41016H65.8145V4.90625H69.1543V0.179688H71.0098ZM56.4395 9.33984C59.125 8.43164 60.8047 6.12695 60.7949 3.71484V3.03125H57.0059V1.50781H66.4395V3.03125H62.6895V3.71484C62.6797 5.89258 64.2617 8.08984 66.9082 8.96875L65.9512 10.4531C63.9883 9.76953 62.5332 8.36328 61.7715 6.625C61.0098 8.55859 59.4766 10.1016 57.3965 10.8438L56.4395 9.33984ZM59.6426 17.2891V11.8398H61.498V15.7852H71.4785V17.2891H59.6426ZM80.1309 4.61328C80.1113 7.80664 82.0449 11.0293 84.7598 12.2305L83.6465 13.6953C81.6348 12.7383 80.043 10.7754 79.2227 8.38281C78.4121 10.9512 76.8008 13.0605 74.7012 14.0859L73.5684 12.5234C76.3223 11.3027 78.2559 7.95312 78.2559 4.61328V1.625H80.1309V4.61328ZM86.3418 17.6992V0.160156H88.1973V17.6992H86.3418ZM105.463 0.160156V17.6602H103.607V0.160156H105.463ZM91.0879 12.8945C92.5332 12.8848 94.1738 12.875 95.8926 12.8359V11.0781C93.8516 10.8047 92.5234 9.60352 92.5332 7.89453C92.5234 5.92188 94.2422 4.62305 96.7715 4.61328C99.3301 4.62305 101.078 5.92188 101.088 7.89453C101.078 9.58398 99.7598 10.7754 97.7285 11.0684V12.7676C99.3496 12.6895 100.99 12.5723 102.533 12.3672L102.67 13.7539C98.7832 14.3984 94.5449 14.4473 91.3418 14.4375L91.0879 12.8945ZM91.459 3.73438V2.25H95.8926V0.199219H97.748V2.25H102.143V3.73438H91.459ZM94.291 7.89453C94.2715 9.00781 95.3066 9.70117 96.7715 9.69141C98.2852 9.70117 99.3105 9.00781 99.3105 7.89453C99.3105 6.77148 98.2852 6.05859 96.7715 6.05859C95.3066 6.05859 94.2715 6.77148 94.291 7.89453ZM129.154 9.39844V10.8633H122.064V12.5625H127.24V17.6602H125.365V14.0859H114.936V12.5625H120.229V10.8633H113.139V9.39844H129.154ZM115.15 2.03516V0.570312H127.143V4.96484H117.025V6.60547H127.494V8.05078H115.189V3.59766H125.287V2.03516H115.15ZM146.4 8.65625V10.1406H139.33V12.0156H144.447V17.6602H142.572V13.5195H132.221V12.0156H137.494V10.1406H130.443V8.65625H146.4ZM132.533 7.19141V0.570312H134.369V2.46484H142.475V0.570312H144.33V7.19141H132.533ZM134.369 5.70703H142.475V3.85156H134.369V5.70703ZM155.697 0.453125C159.643 0.443359 161.938 1.50781 161.947 3.46094C161.938 5.42383 159.643 6.48828 155.697 6.48828C151.752 6.48828 149.438 5.42383 149.447 3.46094C149.438 1.50781 151.752 0.443359 155.697 0.453125ZM147.729 9.04688V7.5625H163.686V9.04688H147.729ZM149.643 11.7812V10.3945H161.674V14.4961H151.479V16.0586H162.162V17.4844H149.662V13.1484H159.838V11.7812H149.643ZM151.381 3.46094C151.371 4.54492 152.914 5.10156 155.697 5.10156C158.5 5.10156 160.043 4.54492 160.033 3.46094C160.043 2.42578 158.5 1.82031 155.697 1.82031C152.914 1.82031 151.371 2.42578 151.381 3.46094ZM184.447 0.160156V17.6602H182.572V0.160156H184.447ZM170.072 12.9727C174.721 10.7559 176.996 7.60156 177.357 3.51953H170.912V2.03516H179.232C179.232 7.16211 177.055 11.5957 171.049 14.4766L170.072 12.9727ZM203.178 9.71094V11.2148H187.162V9.71094H194.252V8.05078H189.213V3.59766H199.311V2.03516H189.174V0.570312H201.166V4.96484H191.049V6.60547H201.518V8.05078H196.088V9.71094H203.178ZM188.959 13.9297V12.4453H201.264V17.5234H199.389V13.9297H188.959ZM213.119 3.05078V4.55469H204.428V3.05078H207.865V0.667969H209.701V3.05078H213.119ZM204.994 9.63281C204.984 7.2793 206.586 5.60938 208.783 5.60938C211 5.60938 212.582 7.2793 212.592 9.63281C212.582 12.0254 211 13.7051 208.783 13.6953C206.586 13.7051 204.984 12.0254 204.994 9.63281ZM206.635 9.63281C206.625 11.1172 207.523 12.1133 208.783 12.1133C210.043 12.1133 210.951 11.1172 210.951 9.63281C210.951 8.17773 210.043 7.16211 208.783 7.15234C207.523 7.16211 206.625 8.17773 206.635 9.63281ZM213.92 16.8398V0.550781H215.678V7.44531H217.689V0.160156H219.447V17.6602H217.689V8.96875H215.678V16.8398H213.92ZM237.768 13.9492V15.4922H221.752V13.9492H228.803V10.3555H223.588V1.35156H225.443V4.35938H234.037V1.35156H235.873V10.3555H230.639V13.9492H237.768ZM225.443 8.85156H234.037V5.86328H225.443V8.85156ZM244.369 4.94531C244.369 7.73828 245.541 10.7168 247.885 12.1523L246.85 13.5781C245.209 12.5918 244.105 10.8438 243.5 8.82227C242.865 11.0391 241.654 12.9336 239.955 13.9688L238.803 12.582C241.273 11.0977 242.582 8.00195 242.572 5.02344V1.76172H244.369V4.94531ZM245.99 7.85547V6.3125H248.705V0.492188H250.463V16.8008H248.705V7.85547H245.99ZM252.318 17.6602V0.160156H254.096V17.6602H252.318ZM272.338 13.9297V15.4727H256.322V13.9297H260.15V9.35938C258.715 8.56836 257.836 7.31836 257.846 5.74609C257.836 2.99219 260.541 1.18555 264.291 1.17578C268.051 1.18555 270.756 2.99219 270.756 5.74609C270.756 7.28906 269.916 8.5293 268.51 9.32031V13.9297H272.338ZM259.643 5.74609C259.643 7.62109 261.547 8.8418 264.291 8.85156C267.016 8.8418 268.949 7.62109 268.959 5.74609C268.949 3.86133 267.016 2.66016 264.291 2.66016C261.547 2.66016 259.643 3.86133 259.643 5.74609ZM261.986 13.9297H266.635V10.043C265.922 10.209 265.131 10.2969 264.291 10.2969C263.471 10.2969 262.689 10.209 261.986 10.043V13.9297Z" fill="black"/>
</svg>
