<svg width="159" height="19" viewBox="0 0 159 19" fill="none" xmlns="http://www.w3.org/2000/svg">
<path d="M0.923828 9.60938C0.943359 5.92773 1.98828 2.87109 3.81445 0.253906H5.72852C4.38086 2.1875 3.0918 6.12305 3.0918 9.60938C3.0918 13.1055 4.38086 17.041 5.72852 18.9844H3.81445C1.98828 16.3574 0.943359 13.3008 0.923828 9.60938ZM8.11133 15L14.4199 2.8125V2.69531H7.13477V0.859375H16.6465V2.77344L10.3574 15H8.11133ZM23.0137 9.60938C22.9941 13.3008 21.9492 16.3574 20.123 18.9844H18.209C19.5566 17.041 20.8457 13.1055 20.8457 9.60938C20.8457 6.12305 19.5566 2.1875 18.209 0.253906H20.123C21.9492 2.87109 22.9941 5.92773 23.0137 9.60938ZM31.041 0.859375H33.6582L38.1309 11.8164H38.3066L42.7793 0.859375H45.3965V15H43.3457V4.78516H43.209L39.0684 14.9805H37.3691L33.209 4.76562H33.0918V15H31.041V0.859375ZM52.6035 15.2148C49.5957 15.2148 47.6328 13.0273 47.6426 9.74609C47.6328 6.44531 49.5957 4.25781 52.6035 4.25781C55.5918 4.25781 57.5449 6.44531 57.5449 9.74609C57.5449 13.0273 55.5918 15.2148 52.6035 15.2148ZM49.7324 9.74609C49.7324 11.7676 50.6602 13.4766 52.6035 13.4766C54.5176 13.4766 55.4355 11.7676 55.4355 9.74609C55.4355 7.71484 54.5176 5.98633 52.6035 5.97656C50.6602 5.98633 49.7324 7.71484 49.7324 9.74609ZM68.3262 4.39453L64.4785 15H62.2324L58.3848 4.39453H60.6309L63.3066 12.5391H63.4043L66.0801 4.39453H68.3262ZM70.0254 15V4.39453H72.1152V15H70.0254ZM69.752 1.52344C69.7617 0.839844 70.3574 0.292969 71.0801 0.292969C71.793 0.292969 72.3887 0.839844 72.3887 1.52344C72.3887 2.20703 71.793 2.76367 71.0801 2.75391C70.3574 2.76367 69.7617 2.20703 69.752 1.52344ZM79.2246 15.2148C76.0996 15.2148 74.1758 13.0566 74.1855 9.76562C74.1758 6.50391 76.1289 4.25781 79.0879 4.25781C81.5 4.25781 83.7949 5.75195 83.7949 9.58984V10.332H76.2559C76.3145 12.3535 77.5059 13.4961 79.2441 13.4961C80.4258 13.4961 81.1973 12.9883 81.5488 12.3438H83.6582C83.1895 14.0625 81.5586 15.2148 79.2246 15.2148ZM76.2656 8.76953H81.7441C81.7441 7.1582 80.6992 5.9668 79.1074 5.97656C77.4375 5.9668 76.3535 7.27539 76.2656 8.76953ZM90.9238 15V0.859375H95.9629C99.2539 0.859375 100.865 2.83203 100.865 5.44922C100.865 8.05664 99.2441 10.0391 95.9629 10.0391H93.0723V15H90.9238ZM93.0723 8.20312H95.748C97.8281 8.21289 98.6973 7.04102 98.6973 5.44922C98.6973 3.84766 97.8281 2.70508 95.748 2.69531H93.0723V8.20312ZM107.311 15.2148C104.303 15.2148 102.34 13.0273 102.35 9.74609C102.34 6.44531 104.303 4.25781 107.311 4.25781C110.299 4.25781 112.252 6.44531 112.252 9.74609C112.252 13.0273 110.299 15.2148 107.311 15.2148ZM104.439 9.74609C104.439 11.7676 105.367 13.4766 107.311 13.4766C109.225 13.4766 110.143 11.7676 110.143 9.74609C110.143 7.71484 109.225 5.98633 107.311 5.97656C105.367 5.98633 104.439 7.71484 104.439 9.74609ZM120.26 7.28516C120.064 6.44531 119.4 5.89844 118.248 5.89844C117.057 5.89844 116.207 6.51367 116.217 7.32422C116.207 7.94922 116.705 8.39844 117.877 8.67188L119.557 9.0625C121.51 9.50195 122.457 10.4297 122.467 11.9336C122.457 13.8477 120.836 15.2148 118.131 15.2148C115.582 15.2148 114.078 14.082 113.814 12.1094H115.943C116.129 13.0664 116.852 13.5449 118.111 13.5352C119.459 13.5449 120.328 12.9785 120.338 12.0898C120.328 11.4062 119.82 10.9668 118.697 10.7031L117.037 10.3516C115.123 9.93164 114.127 8.90625 114.127 7.44141C114.127 5.55664 115.768 4.25781 118.229 4.25781C120.592 4.25781 122.066 5.45898 122.271 7.28516H120.26ZM129.459 4.39453V6.05469H127.291V11.875C127.301 13.0762 127.887 13.291 128.561 13.3008C128.863 13.3008 129.322 13.2715 129.615 13.2422V15.0586C129.332 15.0977 128.883 15.1367 128.307 15.1367C126.676 15.1367 125.201 14.2383 125.221 12.3047V6.05469H123.658V4.39453H125.221V1.85547H127.291V4.39453H129.459ZM135.943 15.2148C132.818 15.2148 130.895 13.0566 130.904 9.76562C130.895 6.50391 132.848 4.25781 135.807 4.25781C138.219 4.25781 140.514 5.75195 140.514 9.58984V10.332H132.975C133.033 12.3535 134.225 13.4961 135.963 13.4961C137.145 13.4961 137.916 12.9883 138.268 12.3438H140.377C139.908 14.0625 138.277 15.2148 135.943 15.2148ZM132.984 8.76953H138.463C138.463 7.1582 137.418 5.9668 135.826 5.97656C134.156 5.9668 133.072 7.27539 132.984 8.76953ZM142.584 15V4.39453H144.596V6.07422H144.713C145.104 4.94141 146.168 4.22852 147.408 4.23828C147.662 4.22852 148.072 4.25781 148.287 4.27734V6.26953C148.111 6.23047 147.623 6.14258 147.193 6.15234C145.748 6.14258 144.674 7.14844 144.674 8.53516V15H142.584ZM155.807 7.28516C155.611 6.44531 154.947 5.89844 153.795 5.89844C152.604 5.89844 151.754 6.51367 151.764 7.32422C151.754 7.94922 152.252 8.39844 153.424 8.67188L155.104 9.0625C157.057 9.50195 158.004 10.4297 158.014 11.9336C158.004 13.8477 156.383 15.2148 153.678 15.2148C151.129 15.2148 149.625 14.082 149.361 12.1094H151.49C151.676 13.0664 152.398 13.5449 153.658 13.5352C155.006 13.5449 155.875 12.9785 155.885 12.0898C155.875 11.4062 155.367 10.9668 154.244 10.7031L152.584 10.3516C150.67 9.93164 149.674 8.90625 149.674 7.44141C149.674 5.55664 151.314 4.25781 153.775 4.25781C156.139 4.25781 157.613 5.45898 157.818 7.28516H155.807Z" fill="black"/>
</svg>
