<svg width="108" height="18" viewBox="0 0 108 18" fill="none" xmlns="http://www.w3.org/2000/svg">
<path d="M13.4805 0.160156V6.9375H16.293V8.46094H13.4805V17.6992H11.625V0.160156H13.4805ZM0.589844 13.3438V1.83984H8.77344V3.34375H2.44531V11.8008C5.38477 11.791 7.58203 11.6641 10.082 11.2148L10.3164 12.7773C7.57227 13.2656 5.24805 13.3535 1.99609 13.3438H0.589844ZM31.7422 0.160156V17.6992H29.8867V9.57422H24.7891V8.05078H29.8867V5.60938H24.7891V4.125H29.8867V0.160156H31.7422ZM18.0703 13.7148V2.05469H19.9453V12.1328C22.6602 12.1328 24.7402 12.0059 27.0742 11.5469L27.25 13.0703C24.7109 13.5684 22.4941 13.7051 19.457 13.7148H18.0703ZM48.168 0.160156V5.33594H50.707V6.87891H48.168V12.875H46.293V0.160156H48.168ZM34.3984 9.47656C38.5 8.24609 41.0391 5.91211 41.4004 3.03125H35.1406V1.48828H43.4219C43.4219 6.07812 40.2969 9.4082 35.1797 10.9609L34.3984 9.47656ZM37.0547 17.2891V11.5664H38.9297V15.7852H48.8906V17.2891H37.0547ZM62.6602 4.61328C62.6406 7.70898 64.4473 10.8828 67.0547 12.1523L65.9023 13.6367C63.998 12.6406 62.5234 10.6875 61.752 8.35352C60.9707 10.834 59.4375 12.9336 57.4453 13.9688L56.293 12.4648C58.9785 11.1758 60.7949 7.81641 60.8047 4.61328V1.625H62.6602V4.61328ZM68.3633 17.6602V0.160156H70.2188V7.13281H73.0312V8.71484H70.2188V17.6602H68.3633ZM87.6211 0.179688V4.53516H90.1797V6.09766H87.6211V10.5898H85.7656V0.179688H87.6211ZM74.5742 2.58203V1.09766H82.543V6.03906H76.4492V8.22656C79.4863 8.2168 81.6348 8.12891 84.1836 7.69922L84.3789 9.18359C81.6738 9.67188 79.3594 9.76953 76 9.76953H74.5938V4.63281H80.7266V2.58203H74.5742ZM76.4102 17.4453V11.4102H87.6211V17.4453H76.4102ZM78.2266 15.9414H85.8242V12.8555H78.2266V15.9414ZM107.133 7.32812V8.8125H91.1562V7.32812H107.133ZM93.0703 11.625V10.1992H105.102V14.4375H94.9062V16H105.59V17.4648H93.0898V13.0703H103.266V11.625H93.0703ZM93.2461 6.05859V0.667969H105.062V2.17188H95.1016V4.57422H105.238V6.05859H93.2461Z" fill="black"/>
</svg>
