<svg width="382" height="53" viewBox="0 0 382 53" fill="none" xmlns="http://www.w3.org/2000/svg">
<path d="M19.928 0.751999V13.744H15.448V1.52H12.44V51.76H14.36V52.528H5.592V51.76H7.512V1.52H4.568V13.744H0.0880001V0.751999H19.928ZM40.6435 52.4H33.8595V19.696C33.8595 18.352 33.4755 16.112 31.6195 16.112L28.9315 16.176H28.8675V51.632H30.9795V52.4H22.0835V51.632H24.1955V2.928H22.0835V2.16H28.8675V15.216H33.0915C37.0595 15.216 38.6595 16.88 38.6595 22.768V51.632H40.6435V52.4ZM58.143 42.544V44.912C58.143 50.608 54.559 52.464 50.719 52.464C46.815 52.464 43.231 50.224 43.231 44.912V22.64C43.231 17.264 46.943 14.832 50.719 14.832C54.559 14.832 58.143 16.304 58.143 22.64V34.032H48.095V49.072C48.095 50.672 48.799 51.696 50.719 51.696C52.639 51.696 53.343 50.672 53.343 49.072V42.544H58.143ZM53.343 33.264V18.224C53.343 16.624 52.639 15.6 50.719 15.6C48.799 15.6 48.095 16.624 48.095 18.224V33.264H53.343ZM93.304 8.816V44.336C93.304 50.352 89.4 52.464 85.752 52.464H75.704V51.696H77.688V1.456H75.704V0.688H85.752C89.336 0.688 93.304 2.864 93.304 8.816ZM88.44 47.152V5.936C88.44 3.568 87.224 1.456 85.752 1.456H82.616V51.696H85.752C87.288 51.696 88.44 49.776 88.44 47.152ZM112.268 42.544V44.912C112.268 50.608 108.684 52.464 104.844 52.464C100.94 52.464 97.356 50.224 97.356 44.912V22.64C97.356 17.264 101.068 14.832 104.844 14.832C108.684 14.832 112.268 16.304 112.268 22.64V34.032H102.22V49.072C102.22 50.672 102.924 51.696 104.844 51.696C106.764 51.696 107.468 50.672 107.468 49.072V42.544H112.268ZM107.468 33.264V18.224C107.468 16.624 106.764 15.6 104.844 15.6C102.924 15.6 102.22 16.624 102.22 18.224V33.264H107.468ZM133.775 15.728H131.855L126.607 52.4H122.255L117.135 15.728H114.895V14.96H124.367V15.728H122.319C123.343 26.032 125.263 36.784 126.287 47.088L130.51 15.728H128.527V14.96H133.775V15.728ZM142.558 10.864H137.758V3.376H142.558V10.864ZM144.67 52.4H135.902V51.632H137.886V16.56H135.902V15.792H142.686V51.632H144.67V52.4ZM155.605 52.4H146.837V51.632H148.821V2.864H146.837V2.096H153.621V51.632H155.605V52.4ZM198.434 15.792H196.514L192.546 52.4H187.874L185.57 23.216L183.266 52.4H178.722L174.818 15.792H172.77V15.024H181.474V15.792H179.554L182.178 47.728L184.61 15.088H189.09L191.714 47.28L195.042 15.792H192.994V15.024H198.434V15.792ZM215.893 42.544V44.912C215.893 50.608 212.309 52.464 208.469 52.464C204.565 52.464 200.981 50.224 200.981 44.912V22.64C200.981 17.264 204.693 14.832 208.469 14.832C212.309 14.832 215.893 16.304 215.893 22.64V34.032H205.845V49.072C205.845 50.672 206.549 51.696 208.469 51.696C210.389 51.696 211.093 50.672 211.093 49.072V42.544H215.893ZM211.093 33.264V18.224C211.093 16.624 210.389 15.6 208.469 15.6C206.549 15.6 205.845 16.624 205.845 18.224V33.264H211.093ZM235.608 52.336L224.728 52.464C220.76 52.464 219.352 49.392 219.352 45.808V37.04C219.352 29.68 224.088 29.424 228.696 29.424H228.824V18.352C228.824 16.88 228.504 15.536 226.584 15.536C224.728 15.536 224.408 17.072 224.408 18.352V25.2H219.544V21.168C219.544 17.136 222.552 14.768 226.584 14.768C230.68 14.768 233.624 17.008 233.624 21.168V51.568H235.608V52.336ZM228.824 30.192H227.032C225.112 30.192 224.216 31.92 224.216 33.648V47.984C224.216 49.2 224.472 51.44 226.2 51.44H228.824V30.192ZM253.329 26.864H248.593V19.312C248.593 18.16 248.337 15.92 246.673 15.92L244.369 16.048H244.305V51.632H246.353V52.4H237.521V51.632H239.569V15.856H237.521V15.088L248.273 15.024C252.049 15.024 253.329 16.368 253.329 21.424V26.864ZM270.686 39.024V46.832C270.686 50.864 267.614 52.528 263.646 52.528C259.742 52.528 256.414 50.736 256.414 46.768V41.712H261.214V49.456C261.214 50.928 261.662 51.76 263.646 51.76C265.566 51.76 265.886 50.928 265.886 49.456V40.496C265.886 38.896 265.246 36.784 263.966 35.44C262.878 34.48 260.83 33.648 258.398 31.664C256.862 30.192 256.414 28.08 256.414 26.096V20.848C256.414 16.944 259.486 14.832 263.39 14.832C267.358 14.832 270.558 16.496 270.558 20.528V24.496H265.758V18.032C265.758 16.56 265.374 15.6 263.39 15.6C261.534 15.6 261.214 16.624 261.214 18.032V24.624C261.214 26.224 261.79 28.208 263.07 29.552C264.158 30.512 266.142 31.472 268.638 33.328C270.174 34.736 270.686 36.976 270.686 39.024ZM305.745 7.6V28.08C305.745 33.968 301.521 35.76 297.873 35.76H294.929V51.696H296.529V52.464H288.081V51.696H290.001V1.52H288.081V0.751999H297.873C301.457 0.751999 305.745 2.288 305.745 7.6ZM300.881 31.728V4.784C300.881 3.312 299.345 1.52 297.873 1.52H294.929V34.992H297.873C299.409 34.992 300.881 33.264 300.881 31.728ZM324.079 26.864H319.343V19.312C319.343 18.16 319.087 15.92 317.423 15.92L315.119 16.048H315.055V51.632H317.103V52.4H308.271V51.632H310.319V15.856H308.271V15.088L319.023 15.024C322.799 15.024 324.079 16.368 324.079 21.424V26.864ZM343.42 52.336L332.54 52.464C328.572 52.464 327.164 49.392 327.164 45.808V37.04C327.164 29.68 331.9 29.424 336.508 29.424H336.636V18.352C336.636 16.88 336.316 15.536 334.396 15.536C332.54 15.536 332.22 17.072 332.22 18.352V25.2H327.356V21.168C327.356 17.136 330.364 14.768 334.396 14.768C338.492 14.768 341.436 17.008 341.436 21.168V51.568H343.42V52.336ZM336.636 30.192H334.844C332.924 30.192 332.028 31.92 332.028 33.648V47.984C332.028 49.2 332.284 51.44 334.012 51.44H336.636V30.192ZM346.294 46.768V20.592C346.294 16.944 347.83 14.832 351.67 14.832C353.014 14.832 354.358 15.024 355.382 15.984H355.574V2.16H362.294V2.928H360.31V51.44H362.294V52.208L351.67 52.272C347.83 52.272 346.294 50.416 346.294 46.768ZM351.094 18.416V51.312L355.51 51.248H355.574V16.88H355.51C353.718 15.088 351.286 15.472 351.094 18.416ZM381.17 52.336L370.29 52.464C366.322 52.464 364.914 49.392 364.914 45.808V37.04C364.914 29.68 369.65 29.424 374.258 29.424H374.386V18.352C374.386 16.88 374.066 15.536 372.146 15.536C370.29 15.536 369.97 17.072 369.97 18.352V25.2H365.106V21.168C365.106 17.136 368.114 14.768 372.146 14.768C376.242 14.768 379.186 17.008 379.186 21.168V51.568H381.17V52.336ZM374.386 30.192H372.594C370.674 30.192 369.778 31.92 369.778 33.648V47.984C369.778 49.2 370.034 51.44 371.762 51.44H374.386V30.192Z" fill="black"/>
</svg>
